<?xml version="1.0" encoding="utf-8"?>
<!-- Generator: Adobe Illustrator 16.0.0, SVG Export Plug-In . SVG Version: 6.00 Build 0)  -->
<!DOCTYPE svg PUBLIC "-//W3C//DTD SVG 1.1//EN" "http://www.w3.org/Graphics/SVG/1.1/DTD/svg11.dtd">
<svg version="1.1" id="Layer_1" xmlns="http://www.w3.org/2000/svg" xmlns:xlink="http://www.w3.org/1999/xlink" x="0px" y="0px"
	 width="474px" height="508px" viewBox="0 0 474 508" enable-background="new 0 0 474 508" xml:space="preserve">
<path fill-rule="evenodd" clip-rule="evenodd" d="M1,501c0-9,0-18,0-27c0.453-1.9,0.992-3.786,1.346-5.705
	c1.78-9.65,2.784-19.511,5.376-28.936c21.819-79.323,71.232-133.904,147.89-163.767c6.097-2.376,12.373-4.292,17.61-6.094
	c-10.186-9.684-21.192-18.678-30.424-29.227c-19.996-22.849-32.091-49.742-35.741-79.939c-3.917-32.392,3.694-62.556,20.258-90.437
	c17.853-30.05,42.33-52.438,76.019-63.615C209.765,4.147,216.438,2.742,223,1c10,0,20,0,30,0c5.127,1.311,10.286,2.507,15.375,3.951
	c24.22,6.874,44.429,20.211,61.117,38.837c23.628,26.371,38.62,57.049,39.969,92.614c2.053,54.11-20.687,96.862-63.699,129.19
	c-1.359,1.021-2.717,2.045-4.69,3.531c4.285,1.386,7.6,2.364,10.85,3.521c85.565,30.438,138.89,89.631,158.935,178.412
	c1.71,7.574,2.778,15.292,4.145,22.943c0,9,0,18,0,27c-2.667,2.667-5.333,5.333-8,8c-152.667,0-305.333,0-458,0
	C6.333,506.333,3.667,503.667,1,501z M237.493,482.229c67.321,0,134.642,0,201.963-0.001c1.333,0,2.673-0.089,3.998,0.012
	c2.888,0.221,3.894-1.064,3.523-3.87c-0.828-6.271-1.196-12.623-2.368-18.826c-8.692-46.026-29.712-85.581-64.974-116.445
	c-62.044-54.307-133.698-70.287-211.231-42.623c-81.41,29.048-127.978,88.991-139.088,175.401c-0.812,6.313-0.618,6.35,5.714,6.351
	C102.518,482.229,170.005,482.228,237.493,482.229z M239.254,261.07c3.105-0.287,7.469-0.382,11.704-1.166
	c4.727-0.876,9.451-2.057,13.981-3.659c45.356-16.048,77.948-61.775,77.685-110.638c-0.247-45.569-20.569-80.63-59.26-104.469
	c-21.802-13.434-45.487-17.636-70.396-9.231c-46.588,15.72-79.707,61.756-79.667,111.262c0.03,38.086,15.118,69.464,44.19,93.92
	C194.91,251.741,214.85,260.614,239.254,261.07z"/>
<path fill-rule="evenodd" clip-rule="evenodd" fill="#FFFFFF" d="M1,501c2.667,2.667,5.333,5.333,8,8c-2.667,0-5.333,0-8,0
	C1,506.333,1,503.667,1,501z"/>
<path fill-rule="evenodd" clip-rule="evenodd" fill="#FFFFFF" d="M467,509c2.667-2.667,5.333-5.333,8-8c0,2.667,0,5.333,0,8
	C472.333,509,469.667,509,467,509z"/>
</svg>
